<svg id="图层_1" data-name="图层 1" xmlns="http://www.w3.org/2000/svg" xmlns:xlink="http://www.w3.org/1999/xlink" width="1400" height="505" viewBox="0 0 1400 505">
  <defs>
    <style>
      .cls-1, .cls-8, .cls-9 {
        fill: none;
      }

      .cls-12, .cls-13, .cls-2 {
        fill: #0c5d59;
      }

      .cls-3 {
        fill: #e0dfe4;
      }

      .cls-4 {
        fill: #66c0ed;
      }

      .cls-5 {
        fill: #454444;
        opacity: 0.79;
      }

      .cls-6 {
        fill: #ce6ca7;
      }

      .cls-7 {
        clip-path: url(#clip-path);
      }

      .cls-8 {
        stroke: #66c0ed;
        stroke-width: 0.37022px;
      }

      .cls-8, .cls-9 {
        stroke-miterlimit: 10;
      }

      .cls-9 {
        stroke: #ce6ca7;
        stroke-width: 0.17192px;
      }

      .cls-10 {
        fill: #012f2c;
      }

      .cls-11 {
        fill: #fffefe;
      }

      .cls-12 {
        font-size: 72px;
      }

      .cls-12, .cls-13 {
        font-family: SIL-Hei-Med-Jian, Hei;
      }

      .cls-13 {
        writing-mode: tb;
        text-orientation: upright;
        glyph-orientation-vertical: 0deg;
        font-size: 36px;
      }
    </style>
    <clipPath id="clip-path">
      <rect class="cls-1" y="0.22433" width="1400" height="505"/>
    </clipPath>
  </defs>
  <rect class="cls-2" y="0.22981" width="1400" height="505"/>
  <g id="图层_2" data-name="图层 2">
    <g id="图层_1-2" data-name="图层 1-2">
      <g>
        <path class="cls-1" d="M344.07341,249.65266l-3.3599-1.49742a21.54309,21.54309,0,0,0,2.1884-9.96865c0-5.81714-1.58063-10.102-4.40636-13.15789a23.20492,23.20492,0,0,1,13.59383,6.0553l4.46454-5.47926a29.03479,29.03479,0,0,0-20.49648-8.21908,27.58741,27.58741,0,0,0-10.01107,1.78394,49.334,49.334,0,0,0-7.80127-.56612H298.1544v66.56265h8.52331V258.78465H318.2451c6.49321,0,12.08117-1.286,16.29006-3.94884l3.65324,1.615c6.69706,2.84143,11.87159,4.87032,11.87159,11.97316,0,6.08815-5.2761,10.45113-14.40832,10.45113a27.99482,27.99482,0,0,1-19.48179-8.21861l-5.07346,5.885a33.83535,33.83535,0,0,0,24.14947,9.84221c14.61146,0,23.54055-8.42174,23.54055-18.97444C358.78644,257.56705,352.29251,252.89937,344.07341,249.65266Zm-26.843,2.232H306.67771V225.5032h10.5527c.06088,0,.11922.00139.17978.00158a15.71953,15.71953,0,0,0-3.16812,9.53643c0,8.37331,5.58173,13.00012,11.30874,15.81959A29.36024,29.36024,0,0,1,317.2304,251.88468Zm15.859-7.04345c-5.16747-2.06806-10.22244-4.53038-10.22244-10.30739a8.56279,8.56279,0,0,1,4.46525-7.66524c4.70367,1.71443,7.04639,5.19924,7.04639,11.318A15.56338,15.56338,0,0,1,333.08939,244.84123Z"/>
        <path class="cls-3" d="M254.58464,171.96306V288.30914a71.60172,71.60172,0,0,0,7.86662,32.73585q.397.77519.8122,1.53938a72.197,72.197,0,0,0,14.8796,18.95177q1.277,1.16063,2.60913,2.26008,2.66352,2.19813,5.53565,4.1395.71727.48455,1.44676.95229,1.45887.93528,2.96493,1.80148a71.63418,71.63418,0,0,0,7.8028,3.87607q3.22605,1.36452,6.60652,2.418.84435.26261,1.69752.505a71.95673,71.95673,0,0,0,19.68548,2.72785h.00015a71.5732,71.5732,0,0,0,40.204-12.28062q1.43457-.96916,2.81923-2.0048,2.76858-2.07048,5.32555-4.39478a72.19743,72.19743,0,0,0,14.87963-18.95177q.41511-.76418.8122-1.53938a71.60159,71.60159,0,0,0,7.86662-32.73588V171.96306Zm10.2597,9.25835-4.77371,3.04432v-1.87529l3.06885-1.851v-.04855l-3.06885-1.851v-1.8753l4.77371,3.04433Zm7.963,5.45545h-5.84488v-1.53417h5.84488Zm62.4386,99.70685a33.8354,33.8354,0,0,1-24.14947-9.84222l5.07346-5.885a27.99482,27.99482,0,0,0,19.48179,8.21861c9.13222,0,14.40832-4.363,14.40832-10.45113,0-7.10284-5.17453-9.13172-11.87159-11.97317l-3.65324-1.615c-4.20889,2.66285-9.79685,3.94883-16.29007,3.94883H306.67771v26.38148H298.1544V218.60348h20.09069a49.33406,49.33406,0,0,1,7.80128.56612,27.58741,27.58741,0,0,1,10.01107-1.78394,29.03479,29.03479,0,0,1,20.49648,8.21908l-4.46454,5.47924a23.20492,23.20492,0,0,0-13.59383-6.0553c2.82573,3.05591,4.40636,7.34076,4.40636,13.15789a21.54306,21.54306,0,0,1-2.1884,9.96865l3.3599,1.49742c8.2191,3.24672,14.713,7.91439,14.713,17.7566C358.78644,277.962,349.85735,286.38371,335.24589,286.38371Z"/>
        <path class="cls-3" d="M327.3322,226.8686a8.56279,8.56279,0,0,0-4.46525,7.66525c0,5.777,5.055,8.23932,10.22244,10.30738a15.56338,15.56338,0,0,0,1.2892-6.65464C334.37859,232.06785,332.03587,228.583,327.3322,226.8686Z"/>
        <path class="cls-3" d="M314.24207,235.04119a15.71943,15.71943,0,0,1,3.16812-9.53642c-.06057-.00019-.11891-.00158-.17979-.00158H306.67771v26.38148h10.5527a29.36076,29.36076,0,0,0,8.32038-1.02389C319.8238,248.04131,314.24207,243.41451,314.24207,235.04119Z"/>
      </g>
    </g>
  </g>
  <g>
    <g>
      <path class="cls-4" d="M9.13187,480.37722a1.33335,1.33335,0,1,1-1.3333-1.3333A1.33331,1.33331,0,0,1,9.13187,480.37722Z"/>
      <path class="cls-4" d="M17.25687,480.37722a1.33335,1.33335,0,1,1-1.3333-1.3333A1.33331,1.33331,0,0,1,17.25687,480.37722Z"/>
      <path class="cls-4" d="M25.38187,480.37722a1.33335,1.33335,0,1,1-1.3333-1.3333A1.33331,1.33331,0,0,1,25.38187,480.37722Z"/>
      <path class="cls-4" d="M33.50687,480.37722a1.33335,1.33335,0,1,1-1.3333-1.3333A1.33331,1.33331,0,0,1,33.50687,480.37722Z"/>
      <path class="cls-4" d="M41.63187,480.37722a1.33335,1.33335,0,1,1-1.3333-1.3333A1.33331,1.33331,0,0,1,41.63187,480.37722Z"/>
      <path class="cls-4" d="M49.75687,480.37722a1.33335,1.33335,0,1,1-1.3333-1.3333A1.33331,1.33331,0,0,1,49.75687,480.37722Z"/>
    </g>
    <g>
      <path class="cls-4" d="M9.13187,488.08552a1.33335,1.33335,0,1,1-1.3333-1.3333A1.3334,1.3334,0,0,1,9.13187,488.08552Z"/>
      <path class="cls-4" d="M17.25687,488.08552a1.33335,1.33335,0,1,1-1.3333-1.3333A1.3334,1.3334,0,0,1,17.25687,488.08552Z"/>
      <path class="cls-4" d="M25.38187,488.08552a1.33335,1.33335,0,1,1-1.3333-1.3333A1.3334,1.3334,0,0,1,25.38187,488.08552Z"/>
      <path class="cls-4" d="M33.50687,488.08552a1.33335,1.33335,0,1,1-1.3333-1.3333A1.3334,1.3334,0,0,1,33.50687,488.08552Z"/>
      <path class="cls-4" d="M41.63187,488.08552a1.33335,1.33335,0,1,1-1.3333-1.3333A1.3334,1.3334,0,0,1,41.63187,488.08552Z"/>
      <path class="cls-4" d="M49.75687,488.08552a1.33335,1.33335,0,1,1-1.3333-1.3333A1.3334,1.3334,0,0,1,49.75687,488.08552Z"/>
    </g>
    <g>
      <path class="cls-4" d="M9.13187,495.79392a1.33335,1.33335,0,1,1-1.3333-1.3334A1.33338,1.33338,0,0,1,9.13187,495.79392Z"/>
      <path class="cls-4" d="M17.25687,495.79392a1.33335,1.33335,0,1,1-1.3333-1.3334A1.33338,1.33338,0,0,1,17.25687,495.79392Z"/>
      <path class="cls-4" d="M25.38187,495.79392a1.33335,1.33335,0,1,1-1.3333-1.3334A1.33338,1.33338,0,0,1,25.38187,495.79392Z"/>
      <path class="cls-4" d="M33.50687,495.79392a1.33335,1.33335,0,1,1-1.3333-1.3334A1.33338,1.33338,0,0,1,33.50687,495.79392Z"/>
      <path class="cls-4" d="M41.63187,495.79392a1.33335,1.33335,0,1,1-1.3333-1.3334A1.33338,1.33338,0,0,1,41.63187,495.79392Z"/>
      <path class="cls-4" d="M49.75687,495.79392a1.33335,1.33335,0,1,1-1.3333-1.3334A1.33338,1.33338,0,0,1,49.75687,495.79392Z"/>
    </g>
  </g>
  <g>
    <g>
      <path class="cls-4" d="M11.01167,10.73122a1.3333,1.3333,0,1,1-1.3333-1.3333A1.33334,1.33334,0,0,1,11.01167,10.73122Z"/>
      <path class="cls-4" d="M19.13667,10.73122a1.3333,1.3333,0,1,1-1.3333-1.3333A1.33334,1.33334,0,0,1,19.13667,10.73122Z"/>
      <path class="cls-4" d="M27.26167,10.73122a1.3333,1.3333,0,1,1-1.3333-1.3333A1.33334,1.33334,0,0,1,27.26167,10.73122Z"/>
      <path class="cls-4" d="M35.38667,10.73122a1.3333,1.3333,0,1,1-1.3333-1.3333A1.33334,1.33334,0,0,1,35.38667,10.73122Z"/>
      <path class="cls-4" d="M43.51167,10.73122a1.3333,1.3333,0,1,1-1.3333-1.3333A1.33334,1.33334,0,0,1,43.51167,10.73122Z"/>
      <path class="cls-4" d="M51.63667,10.73122a1.3333,1.3333,0,1,1-1.3333-1.3333A1.33334,1.33334,0,0,1,51.63667,10.73122Z"/>
    </g>
    <g>
      <path class="cls-4" d="M11.01167,18.43962a1.3333,1.3333,0,1,1-1.3333-1.3334A1.33331,1.33331,0,0,1,11.01167,18.43962Z"/>
      <path class="cls-4" d="M19.13667,18.43962a1.3333,1.3333,0,1,1-1.3333-1.3334A1.33331,1.33331,0,0,1,19.13667,18.43962Z"/>
      <path class="cls-4" d="M27.26167,18.43962a1.3333,1.3333,0,1,1-1.3333-1.3334A1.33331,1.33331,0,0,1,27.26167,18.43962Z"/>
      <path class="cls-4" d="M35.38667,18.43962a1.3333,1.3333,0,1,1-1.3333-1.3334A1.33331,1.33331,0,0,1,35.38667,18.43962Z"/>
      <path class="cls-4" d="M43.51167,18.43962a1.3333,1.3333,0,1,1-1.3333-1.3334A1.33331,1.33331,0,0,1,43.51167,18.43962Z"/>
      <path class="cls-4" d="M51.63667,18.43962a1.3333,1.3333,0,1,1-1.3333-1.3334A1.33331,1.33331,0,0,1,51.63667,18.43962Z"/>
    </g>
    <g>
      <circle class="cls-4" cx="9.67837" cy="26.14792" r="1.3333"/>
      <circle class="cls-4" cx="17.80337" cy="26.14792" r="1.3333"/>
      <circle class="cls-4" cx="25.92837" cy="26.14792" r="1.3333"/>
      <circle class="cls-4" cx="34.05337" cy="26.14792" r="1.3333"/>
      <circle class="cls-4" cx="42.17837" cy="26.14792" r="1.3333"/>
      <circle class="cls-4" cx="50.30337" cy="26.14792" r="1.3333"/>
    </g>
  </g>
  <g>
    <rect class="cls-4" x="249.08841" y="115.31227" width="10.9923" height="3.7597"/>
    <rect class="cls-4" x="249.08841" y="115.31227" width="10.9923" height="3.7597" transform="translate(137.39245 371.77668) rotate(-90)"/>
  </g>
  <polygon class="cls-5" points="79.785 126.305 76.168 126.305 76.168 122.688 72.409 122.688 72.409 126.305 68.792 126.305 68.792 130.064 72.409 130.064 72.409 133.681 76.168 133.681 76.168 130.064 79.785 130.064 79.785 126.305"/>
  <polygon class="cls-5" points="35.487 413.495 31.871 413.495 31.871 409.879 28.111 409.879 28.111 413.495 24.495 413.495 24.495 417.255 28.111 417.255 28.111 420.871 31.871 420.871 31.871 417.255 35.487 417.255 35.487 413.495"/>
  <polygon class="cls-5" points="157.692 352.841 154.076 352.841 154.076 349.224 150.316 349.224 150.316 352.841 146.7 352.841 146.7 356.6 150.316 356.6 150.316 360.216 154.076 360.216 154.076 356.6 157.692 356.6 157.692 352.841"/>
  <rect class="cls-1" x="26.04852" y="1.59297" width="749.99998" height="500"/>
  <g>
    <g>
      <path class="cls-6" d="M724.625,61.73132a1.3333,1.3333,0,1,1-1.3334,1.3333A1.33325,1.33325,0,0,1,724.625,61.73132Z"/>
      <path class="cls-6" d="M724.625,53.60632a1.3333,1.3333,0,1,1-1.3334,1.3333A1.33325,1.33325,0,0,1,724.625,53.60632Z"/>
      <path class="cls-6" d="M724.625,45.48132a1.3333,1.3333,0,1,1-1.3334,1.3333A1.33325,1.33325,0,0,1,724.625,45.48132Z"/>
      <path class="cls-6" d="M724.625,37.35632a1.3333,1.3333,0,1,1-1.3334,1.3333A1.33325,1.33325,0,0,1,724.625,37.35632Z"/>
      <path class="cls-6" d="M724.625,29.23132a1.3333,1.3333,0,1,1-1.3334,1.3333A1.33325,1.33325,0,0,1,724.625,29.23132Z"/>
      <path class="cls-6" d="M724.625,21.10632a1.3333,1.3333,0,1,1-1.3334,1.3333A1.33325,1.33325,0,0,1,724.625,21.10632Z"/>
    </g>
    <g>
      <circle class="cls-6" cx="732.3333" cy="63.06462" r="1.3333"/>
      <circle class="cls-6" cx="732.3333" cy="54.93962" r="1.3333"/>
      <circle class="cls-6" cx="732.3333" cy="46.81462" r="1.3333"/>
      <circle class="cls-6" cx="732.3333" cy="38.68962" r="1.3333"/>
      <circle class="cls-6" cx="732.3333" cy="30.56462" r="1.3333"/>
      <circle class="cls-6" cx="732.3333" cy="22.43962" r="1.3333"/>
    </g>
    <g>
      <path class="cls-6" d="M740.0416,61.73132a1.3333,1.3333,0,1,1-1.3333,1.3333A1.33334,1.33334,0,0,1,740.0416,61.73132Z"/>
      <path class="cls-6" d="M740.0416,53.60632a1.3333,1.3333,0,1,1-1.3333,1.3333A1.33334,1.33334,0,0,1,740.0416,53.60632Z"/>
      <path class="cls-6" d="M740.0416,45.48132a1.3333,1.3333,0,1,1-1.3333,1.3333A1.33334,1.33334,0,0,1,740.0416,45.48132Z"/>
      <path class="cls-6" d="M740.0416,37.35632a1.3333,1.3333,0,1,1-1.3333,1.3333A1.33334,1.33334,0,0,1,740.0416,37.35632Z"/>
      <path class="cls-6" d="M740.0416,29.23132a1.3333,1.3333,0,1,1-1.3333,1.3333A1.33334,1.33334,0,0,1,740.0416,29.23132Z"/>
      <path class="cls-6" d="M740.0416,21.10632a1.3333,1.3333,0,1,1-1.3333,1.3333A1.33334,1.33334,0,0,1,740.0416,21.10632Z"/>
    </g>
  </g>
  <g>
    <g>
      <path class="cls-4" d="M1349.1607,12.06467a1.3333,1.3333,0,1,1-1.33329-1.3334A1.33331,1.33331,0,0,1,1349.1607,12.06467Z"/>
      <path class="cls-4" d="M1357.2857,12.06467a1.3333,1.3333,0,1,1-1.33329-1.3334A1.33331,1.33331,0,0,1,1357.2857,12.06467Z"/>
      <path class="cls-4" d="M1365.4107,12.06467a1.3333,1.3333,0,1,1-1.33329-1.3334A1.33331,1.33331,0,0,1,1365.4107,12.06467Z"/>
      <path class="cls-4" d="M1373.5357,12.06467a1.3333,1.3333,0,1,1-1.33329-1.3334A1.33331,1.33331,0,0,1,1373.5357,12.06467Z"/>
      <path class="cls-4" d="M1381.6607,12.06467a1.3333,1.3333,0,1,1-1.33329-1.3334A1.33331,1.33331,0,0,1,1381.6607,12.06467Z"/>
      <path class="cls-4" d="M1389.7857,12.06467a1.3333,1.3333,0,1,1-1.33329-1.3334A1.33331,1.33331,0,0,1,1389.7857,12.06467Z"/>
    </g>
    <g>
      <path class="cls-4" d="M1349.1607,19.773a1.3333,1.3333,0,1,1-1.33329-1.3333A1.33325,1.33325,0,0,1,1349.1607,19.773Z"/>
      <path class="cls-4" d="M1357.2857,19.773a1.3333,1.3333,0,1,1-1.33329-1.3333A1.33325,1.33325,0,0,1,1357.2857,19.773Z"/>
      <path class="cls-4" d="M1365.4107,19.773a1.3333,1.3333,0,1,1-1.33329-1.3333A1.33325,1.33325,0,0,1,1365.4107,19.773Z"/>
      <path class="cls-4" d="M1373.5357,19.773a1.3333,1.3333,0,1,1-1.33329-1.3333A1.33325,1.33325,0,0,1,1373.5357,19.773Z"/>
      <path class="cls-4" d="M1381.6607,19.773a1.3333,1.3333,0,1,1-1.33329-1.3333A1.33325,1.33325,0,0,1,1381.6607,19.773Z"/>
      <path class="cls-4" d="M1389.7857,19.773a1.3333,1.3333,0,1,1-1.33329-1.3333A1.33325,1.33325,0,0,1,1389.7857,19.773Z"/>
    </g>
    <g>
      <path class="cls-4" d="M1349.1607,27.48127a1.3333,1.3333,0,1,1-1.33329-1.3333A1.33333,1.33333,0,0,1,1349.1607,27.48127Z"/>
      <path class="cls-4" d="M1357.2857,27.48127a1.3333,1.3333,0,1,1-1.33329-1.3333A1.33333,1.33333,0,0,1,1357.2857,27.48127Z"/>
      <path class="cls-4" d="M1365.4107,27.48127a1.3333,1.3333,0,1,1-1.33329-1.3333A1.33333,1.33333,0,0,1,1365.4107,27.48127Z"/>
      <path class="cls-4" d="M1373.5357,27.48127a1.3333,1.3333,0,1,1-1.33329-1.3333A1.33333,1.33333,0,0,1,1373.5357,27.48127Z"/>
      <path class="cls-4" d="M1381.6607,27.48127a1.3333,1.3333,0,1,1-1.33329-1.3333A1.33333,1.33333,0,0,1,1381.6607,27.48127Z"/>
      <path class="cls-4" d="M1389.7857,27.48127a1.3333,1.3333,0,1,1-1.33329-1.3333A1.33333,1.33333,0,0,1,1389.7857,27.48127Z"/>
    </g>
  </g>
  <g>
    <rect class="cls-6" x="1248.0039" y="210.46822" width="10.9922" height="3.7597"/>
    <rect class="cls-6" x="1248.00385" y="210.46827" width="10.9923" height="3.7596" transform="translate(1041.15194 1465.84807) rotate(-90)"/>
  </g>
  <g class="cls-7">
    <g>
      <path class="cls-8" d="M944.72772,625.94108s-64.48089-201.451,94.3353-182.5708,54.4222-140.3131,207.693-181.7776c166.20109-44.9627,228.83961,95.7786,228.83961,95.7786"/>
      <path class="cls-8" d="M946.77472,625.63621s-64.21343-199.44411,93.58285-180.99216a178.00443,178.00443,0,0,0,36.427.99c104.73684-9.41394,32.85725-142.81391,170.38759-180.23012,163.62684-44.4629,225.7615,93.42058,227.11688,94.55493"/>
      <path class="cls-8" d="M948.82171,625.33134s-63.946-197.43722,92.83041-179.41352a179.70273,179.70273,0,0,0,36.123.98151c104.03015-9.12242,34.28769-140.60035,169.81321-177.68419,161.05258-43.96309,222.68338,91.06256,225.39414,93.33126"/>
      <path class="cls-8" d="M950.8687,625.02646s-63.67848-195.43031,92.078-177.83486a181.5195,181.5195,0,0,0,35.819.973c103.32345-8.83089,35.71811-138.38679,169.23882-175.13826,158.47832-43.46329,219.60526,88.70454,223.6714,92.10759"/>
      <path class="cls-8" d="M952.91569,624.72159s-63.411-193.42342,91.32553-176.25622a183.46232,183.46232,0,0,0,35.515.96456c102.61676-8.53937,37.14854-136.17322,168.66443-172.59233,155.90407-42.96348,216.52715,86.34652,221.94867,90.88393"/>
      <path class="cls-8" d="M954.96268,624.41672s-63.14353-191.41652,90.57309-174.67758a185.54457,185.54457,0,0,0,35.21094.95609c101.91006-8.24785,38.579-133.95966,168.09-170.04639,153.32981-42.46369,213.449,83.98849,220.22593,89.66025"/>
      <path class="cls-8" d="M957.00968,624.11185s-62.87607-189.40963,89.82064-173.09894a187.77766,187.77766,0,0,0,34.90692.94762c101.20337-7.95632,40.00939-131.7461,167.51565-167.50046,150.75555-41.96389,210.37092,81.63046,218.5032,88.43658"/>
      <path class="cls-8" d="M959.05667,623.807s-62.57474-187.72272,89.06819-171.52029a192.72957,192.72957,0,0,0,34.60292.93915C1183.22445,445.561,1124.1676,323.69329,1249.669,288.2713c148.18129-41.46408,207.29279,79.27244,216.78046,87.21292"/>
      <path class="cls-8" d="M961.10366,623.50211s-62.30358-185.75753,88.31575-169.94165a195.763,195.763,0,0,0,34.2989.93068c99.79-7.37329,42.87025-127.319,166.36688-162.40861,145.607-40.96428,204.21467,76.91442,215.05772,85.98925"/>
      <path class="cls-8" d="M963.15065,623.19724S901.118,439.406,1050.714,454.83423a199.02556,199.02556,0,0,0,33.99489.92221c99.08329-7.08176,44.30067-125.10543,165.79248-159.86268,143.03278-40.46447,201.13656,74.5564,213.335,84.76558"/>
      <path class="cls-8" d="M965.19765,622.89237S903.43552,441.06861,1052.00851,456.108a202.54339,202.54339,0,0,0,33.69087.91373c98.3766-6.79024,45.7311-122.89187,165.2181-157.31675,140.45852-39.96467,198.05844,72.19838,211.61225,83.54191"/>
      <path class="cls-8" d="M967.24464,622.5875s-61.49184-179.8551,86.05842-165.20572a206.339,206.339,0,0,0,33.38686.90526c97.6699-6.49872,47.16153-120.6783,164.6437-154.77081,137.88427-39.46487,194.98033,69.84035,209.88952,82.31824"/>
      <path class="cls-8" d="M969.29163,622.28263s-61.22185-177.88519,85.306-163.62708a210.44466,210.44466,0,0,0,33.08284.89679c96.96321-6.20719,48.52394-118.69828,164.06932-152.22488,135.231-39.23856,191.90221,67.48233,208.16678,81.09457"/>
      <path class="cls-8" d="M971.33862,621.97776s-60.95215-175.914,84.55354-162.04843a214.90039,214.90039,0,0,0,32.77883.88831c96.25651-5.91567,49.94873-116.50222,163.49493-149.67895C1384.81627,272.38,1440.99,376.263,1458.61,391.00959"/>
      <path class="cls-8" d="M973.38561,621.67289s-60.68275-173.94143,83.8011-160.46979a219.74224,219.74224,0,0,0,32.47481.87984c95.54982-5.62415,51.37355-114.30576,162.92054-147.133,130.06982-38.27835,185.746,62.76629,204.7213,78.64724"/>
      <path class="cls-8" d="M975.43261,621.368S915.019,449.40054,1058.48126,462.47687a225.02192,225.02192,0,0,0,32.1708.87137c94.84312-5.33262,52.79838-112.1089,162.34615-144.58709,127.48934-37.79741,182.66785,60.40827,202.99856,77.42357"/>
      <path class="cls-8" d="M977.4796,621.06315s-60.14486-169.99207,82.2962-157.31251a230.79577,230.79577,0,0,0,31.86679.8629c94.13643-5.0411,54.22325-109.91162,161.77176-142.04115,124.909-37.31588,179.58974,58.05024,201.27583,76.19989"/>
      <path class="cls-8" d="M979.52659,620.75828s-59.87635-168.01514,81.54376-155.73386a237.135,237.135,0,0,0,31.56278.85442c93.42973-4.74958,55.64814-107.71387,161.19737-139.49522,122.32862-36.83371,176.51162,55.69222,199.55309,74.97622"/>
      <path class="cls-8" d="M981.57358,620.45341s-59.60813-166.03662,80.79132-154.15522a244.11671,244.11671,0,0,0,31.25876.846c92.723-4.45806,57.07308-105.51565,160.623-136.9493,119.74838-36.35087,173.4335,53.3342,197.83035,73.75256"/>
      <path class="cls-8" d="M983.62057,620.14854S924.28036,456.09208,1063.65945,467.572a248.12454,248.12454,0,0,0,30.95475.83749c92.0246-3.97989,58.498-103.3169,160.04859-134.40337,117.16824-35.86732,170.35539,50.97618,196.10762,72.52889"/>
      <path class="cls-8" d="M985.66757,619.84366S926.595,457.76909,1064.954,468.84574a256.26308,256.26308,0,0,0,30.65073.829c91.31758-3.68356,59.92308-101.11761,159.47421-131.85744,114.5882-35.383,167.27727,48.61816,194.38488,71.30522"/>
      <path class="cls-8" d="M987.71456,619.53879s-58.80526-160.0909,78.534-149.41928a265.335,265.335,0,0,0,30.34672.82054c90.61048-3.38779,61.34816-98.91773,158.89981-129.31151,112.00828-34.898,164.19916,46.26014,192.66215,70.08155"/>
      <path class="cls-8" d="M989.76155,619.23392s-58.5382-158.10536,77.78155-147.84064a275.51027,275.51027,0,0,0,30.0427.81207c89.90334-3.09261,62.77332-96.71723,158.32543-126.76557,109.42848-34.41206,161.121,43.90211,190.93941,68.85788"/>
      <path class="cls-8" d="M991.80854,618.92905s-58.27143-156.11786,77.02911-146.262a286.9944,286.9944,0,0,0,29.73869.80359c89.19614-2.798,64.19855-94.51606,157.751-124.21964,106.84882-33.92526,158.04291,41.54409,189.21667,67.63421"/>
      <path class="cls-8" d="M993.85553,618.62418s-58.00493-154.12833,76.27666-144.68335c10.589.7448,20.32283,1.053,29.43468.79512,88.48891-2.504,65.62388-92.31418,157.17665-121.67371,104.26933-33.43753,154.9648,39.18607,187.49394,66.41054"/>
      <path class="cls-8" d="M995.90253,618.31931s-57.73871-152.13666,75.52421-143.10471c10.43691.70737,20.07156,1.01479,29.13067.78665,87.78162-2.21063,67.04932-90.11154,156.60226-119.12778,101.69-32.94879,151.88668,36.82805,185.7712,65.18688"/>
      <path class="cls-8" d="M997.94952,618.01444s-57.47274-150.14275,74.77177-141.52607c10.28475.67013,19.82028.97655,28.82665.77818,87.07431-1.91786,68.47488-87.90808,156.02788-116.58185,99.11088-32.459,148.80856,34.47,184.04846,63.96321"/>
      <path class="cls-8" d="M999.99651,617.70957s-57.207-148.14652,74.01933-139.94742c10.13258.63309,19.569.93824,28.52264.7697,86.367-1.62573,69.90058-85.70374,155.45348-114.03591,96.532-31.96807,145.73045,32.112,182.32573,62.73953"/>
      <path class="cls-8" d="M1002.0435,617.4047S945.102,471.25687,1075.31039,479.03592c9.98038.59626,19.31772.89988,28.21862.76124,85.6596-1.33425,71.32645-83.49847,154.8791-111.49,93.95332-31.47593,142.65233,29.754,180.603,61.51586"/>
      <path class="cls-8" d="M1004.0905,617.09983s-56.67632-144.14659,72.51444-136.79014c9.82817.55965,19.06644.86144,27.91461.75277,84.9522-1.04342,72.75251-81.29216,154.3047-108.94406,91.37493-30.9825,139.57422,27.396,178.88026,60.2922"/>
      <path class="cls-8" d="M1006.13749,616.795s-56.41129-142.14265,71.762-135.21149c9.67594.52324,18.81515.82293,27.61059.74429,84.24481-.75326,74.17879-79.08475,153.73032-106.39813,88.79684-30.48768,136.4961,25.03794,177.15752,59.06853"/>
      <path class="cls-8" d="M1008.18448,616.49009S952.038,476.35419,1079.194,482.85724c9.5237.48706,18.56387.78435,27.30658.73582,83.53739-.46378,75.60532-76.87615,153.15593-103.8522,86.2191-29.99139,133.418,22.67992,175.43477,57.84486"/>
      <path class="cls-8" d="M1010.23147,616.18522S954.34963,478.059,1080.48859,484.131c9.37144.45112,18.31277.788,27.00256.72735,82.82815-.5785,77.03215-74.66625,152.58154-101.30627,83.64175-29.49351,130.33986,20.3219,173.712,56.62119"/>
      <path class="cls-8" d="M1012.27846,615.88035S956.66109,479.767,1081.78313,485.40479c9.21918.4154,18.06135.74869,26.69856.71887,82.12217-.28354,78.45931-72.45495,152.00715-98.76033,81.06483-28.99394,127.26174,17.96387,171.9893,55.39752"/>
      <path class="cls-8" d="M1014.32546,615.57548S958.9724,481.4782,1083.07768,486.67856c9.06689.37993,17.81.66818,26.39454.7104,81.4152.40045,79.88688-70.24211,151.43276-96.2144,78.48841-28.49253,124.18363,15.60585,170.26657,54.17385"/>
      <path class="cls-8" d="M1016.37245,615.27061s-55.08886-132.07775,67.99978-127.31828c8.9146.3447,17.55874.6293,26.09053.70193,80.70784.68708,81.31489-68.02761,150.85837-93.66847,75.91254-27.98915,121.10551,13.24783,168.54383,52.95018"/>
      <path class="cls-8" d="M1018.41944,614.96574s-54.82475-130.0546,67.24734-125.73963c8.7623.30972,17.30747.59033,25.78651.69345,80.00052.973,82.74345-65.81127,150.284-91.12254,73.3373-27.48364,118.02739,10.88981,166.82109,51.72652"/>
      <path class="cls-8" d="M1020.46643,614.66086s-54.5607-128.02762,66.4949-124.161c8.61.275,17.05619.55129,25.4825.685,79.29323,1.2581,84.17262-63.59293,149.70959-88.57661,70.7628-26.97583,114.94928,8.53179,165.09836,50.50285"/>
      <path class="cls-8" d="M1022.51342,614.356s-54.29668-125.99663,65.74246-122.58234c8.4577.24056,16.80493.51216,25.17848.67651,78.586,1.54245,85.60252-61.37239,149.13521-86.03068,68.18912-26.46554,111.87116,6.17377,163.37562,49.27918"/>
      <path class="cls-8" d="M1024.56042,614.05112s-54.03266-123.9614,64.99-121.0037c8.3054.20639,16.55367.473,24.87447.668,77.87882,1.826,87.03327-59.14942,148.56081-83.48475,65.61639-25.95256,108.79305,3.81574,161.65289,48.0555"/>
      <path class="cls-8" d="M1026.60741,613.74625S972.83885,491.82457,1090.845,494.3212c8.15311.17249,16.30288.41721,24.57045.65957,77.17576,1.95543,88.465-56.92375,147.98643-80.93882,63.04475-25.43664,105.71492,1.45771,159.93015,46.83184"/>
      <path class="cls-8" d="M1028.6544,613.44138S975.15,493.56416,1092.13953,495.595c8.00082.13889,16.05167.3788,24.26644.6511,76.46906,2.247,89.898-54.69509,147.412-78.39289,60.47438-24.91755,102.6368-.90031,158.20741,45.60817"/>
      <path class="cls-8" d="M1030.70139,613.13651s-53.24-117.82775,62.73268-116.26777c7.84856.10558,15.80047.34038,23.96243.64263,75.76237,2.53848,91.33233-52.46312,146.83765-75.847,57.90547-24.395,99.55869-3.25833,156.48468,44.3845"/>
      <path class="cls-8" d="M1032.74838,612.83164s-52.9754-115.773,61.98024-114.68912c7.69631.07256,15.54926.302,23.65842.63415,75.05567,2.83,92.76834-50.22743,146.26326-73.301,55.33826-23.86867,96.48057-5.61635,154.76194,43.16083"/>
      <path class="cls-8" d="M1034.79538,612.52677s-52.71052-113.71255,61.22779-113.11048c7.54407.03986,15.298.26355,23.3544.62568,74.349,3.12152,94.20636-47.98759,145.68888-70.75509,52.773-23.33823,93.40245-7.97438,153.0392,41.93716"/>
      <path class="cls-8" d="M1036.84237,612.2219s-52.4397-112.657,60.47535-111.53184c7.39151.07365,15.04683.22513,23.05039.61721,73.64228,3.413,95.64678-45.74307,145.11448-68.20916,50.21018-22.80329,90.32434-10.3324,151.31647,40.71349"/>
      <path class="cls-8" d="M1038.88936,611.917s-52.179-110.4526,59.72291-109.95319c7.23967.0323,14.79562.18671,22.74637.60873,72.93559,3.70457,97.0901-43.49328,144.5401-65.66323,47.65006-22.26342,87.24622-12.69042,149.59373,39.48982"/>
      <path class="cls-8" d="M1040.93635,611.61216s-51.9132-107.494,58.97047-108.37455c7.08758-.05629,14.54441.1483,22.44236.60026,72.22889,3.99609,98.53692-41.23751,143.9657-63.1173,45.09324-21.71818,84.16811-15.04844,147.871,38.26616"/>
      <path class="cls-8" d="M1042.98335,611.30729s-51.64622-105.4073,58.218-106.79591c6.9355-.08766,14.2932.10989,22.13834.59179,71.5222,4.28762,99.98806-38.97494,143.39132-60.57137,42.54032-21.167,81.09-17.40646,146.14825,37.04249"/>
      <path class="cls-8" d="M1045.03034,611.00242s-51.37474-103.11317,57.46558-105.21727c6.78369-.10622,14.042.07147,21.83433.58332,70.81551,4.57914,101.44448-36.70461,142.81693-58.02544,39.9921-20.60948,78.01186-19.76448,144.42551,35.81882"/>
      <path class="cls-8" d="M1047.07733,610.69755s-51.10727-101.10628,56.71314-103.63862c6.63167-.14293,13.79077.03305,21.53031.57485,70.10882,4.87065,102.94819-34.34945,142.24254-55.47951,37.48822-19.97256,74.93375-22.12251,142.70278,34.59514"/>
      <path class="cls-8" d="M1049.12432,610.39268s-57.1959-111.489,77.187-101.4936,139.6961-139.2024,282.64819-19.5621"/>
    </g>
    <g>
      <path class="cls-9" d="M-159.70881,142.13757s-34.7174-157.6299,94.1182-127.6586-8.8785-58.5542,105.6651-50.2968,159.81989-74.6604,165.67849-117.6736"/>
      <path class="cls-9" d="M-159.44127,142.703s-7.85637-36.01607-1.55187-69.38921c6.6886-35.71292,28.35688-69.75579,90.91362-58.14982,2.0313.37687,4.10676.78051,6.21907,1.2535,128.1827,28.703-9.03009-60.05079,105.16677-51.7008q4.786.35386,9.42586.51493c107.612,3.55744,150.82777-75.60372,155.17125-118.82136"/>
      <path class="cls-9" d="M-159.17373,143.26835s-7.86794-36.41391-.86591-69.0055c7.3823-34.908,29.34946-68.15264,91.67979-57.089,2.03661.3615,4.118.7277,6.22957,1.18207C65.39179,45.7964-71.312-43.19149,42.53815-34.74892q4.798.36359,9.46344.54992c107.58312,3.9145,151.06115-74.87192,154.05228-119.48918"/>
      <path class="cls-9" d="M-158.9062,143.83374s-7.80072-36.79279-.17994-68.62179c8.16044-34.08292,30.34508-66.55327,92.446-56.02825,2.04205.34609,4.12912.67492,6.24008,1.11065C66.45372,46.47856-69.7334-42.74963,43.77-34.21447c3.20667.24886,6.37271.4516,9.501.5849,107.54145,4.58227,151.29452-74.14012,152.93331-120.157"/>
      <path class="cls-9" d="M-158.63866,144.39913s-7.786-37.18134.506-68.23808c8.88243-33.26819,31.34366-64.95776,93.2121-54.96747,2.04761.33064,4.14006.62216,6.25059,1.03923C67.508,47.16717-68.15483-42.30776,45.00182-33.68c3.21465.25534,6.39292.47252,9.53859.61988,107.507,5.03627,151.5279-73.40832,151.81435-120.82479"/>
      <path class="cls-9" d="M-158.37112,144.96452s-7.77136-37.56827,1.192-67.85438c9.6043-32.45176,32.34518-63.36617,93.97826-53.90668,2.05329.31514,4.15083.56942,6.26109.9678C68.55473,47.86253-66.57625-41.86589,46.23365-33.14557c3.22264.26182,6.41311.49338,9.57617.65487,107.47206,5.487,151.76127-72.67653,150.69538-121.4926"/>
      <path class="cls-9" d="M-158.10358,145.52991s-7.75706-37.95351,1.878-67.47067c10.32587-31.63359,33.34955-61.77858,94.74441-52.84589,2.05908.29958,4.16143.5167,6.2716.89637C69.59386,48.56493-64.97688-41.68563,47.46548-32.61112c3.23125.26078,6.43329.51417,9.61375.68985,107.43655,5.9346,151.99465-71.94473,149.57641-122.16041"/>
      <path class="cls-9" d="M-157.836,146.0953s-7.74322-38.337,2.56392-67.087c11.047-30.81361,34.35674-60.195,95.51058-51.78511,2.065.284,4.17186.464,6.2821.82495C70.62544,49.27467-63.39478-41.28333,48.69731-32.07667c3.23935.26607,6.45344.5349,9.65133.72484,107.40054,6.379,152.228-71.21294,148.45745-122.82822"/>
      <path class="cls-9" d="M-157.5685,146.66069s-7.73-38.71871,3.24989-66.70325c11.76744-29.99178,35.36666-58.61561,96.27673-50.72433,2.071.26831,4.18214.41138,6.2926.75353C71.64953,49.992-61.81268-40.8799,49.92914-31.54221c3.24746.27137,6.47357.55556,9.68891.75981,107.36408,6.82033,152.46139-70.48114,147.33848-123.496"/>
      <path class="cls-9" d="M-157.301,147.22608s-7.71762-39.0986,3.93585-66.31955c12.487-29.16806,36.37927-57.04035,97.04289-49.66354,2.07713.25259,4.19224.35877,6.30311.6821C72.66616,50.71731-60.23057-40.47535,51.161-31.00776c3.25556.2767,6.49368.57616,9.72649.79479C168.21465-22.95438,213.58223-99.96231,207.107-154.3768"/>
      <path class="cls-9" d="M-157.03343,147.79147s-7.70625-39.47667,4.62183-65.93584c13.20556-28.34249,37.39447-55.46931,97.809-48.60275,2.08336.23679,4.20219.30621,6.31362.61067C73.67542,51.45078-58.64847-40.06969,52.39281-30.47331c3.26366.28205,6.51377.5967,9.76405.82978C169.44678-21.9497,215.085-98.66108,207.25742-154.47518"/>
      <path class="cls-9" d="M-156.76589,148.35685s-7.69612-39.853,5.30779-65.55212c13.92277-27.51509,38.41222-53.90254,98.5752-47.542,2.08971.22093,4.212.25369,6.32412.53925C74.67737,52.19273-57.06636-39.66293,53.62464-29.93886c3.27177.28742,6.53385.61718,9.80163.86476C170.67855-20.948,216.5878-97.35985,207.40786-154.57355"/>
      <path class="cls-9" d="M-156.49835,148.92224s-7.68745-40.22751,5.99375-65.16842c14.63842-26.68592,39.43243-52.34007,99.34137-46.48118,2.09614.205,4.22158.20124,6.33462.46783,120.5007,15.203-10.65565-76.99554,99.68508-67.14488,3.27988.29281,6.55392.63759,9.83921.89975,107.21432,8.55545,153.3949-67.554,142.86263-126.16727"/>
      <path class="cls-9" d="M-156.23081,149.48763s-7.68045-40.60043,6.67972-64.78471c15.35227-25.8551,40.455-50.782,100.10752-45.4204,2.10269.189,4.231.14884,6.34513.39641C76.65969,53.70317-53.90217-38.84612,56.0883-28.87c3.288.29823,6.574.65794,9.87679.93473C173.14115-18.95331,219.59337-94.75739,207.70875-154.7703"/>
      <path class="cls-9" d="M-155.96327,150.053s-7.67534-40.97184,7.36568-64.401c16.06408-25.02277,41.47994-49.22824,100.87368-44.35961,2.10934.1729,4.24033.09649,6.35563.325C77.64027,54.47219-52.32009-38.4361,57.32013-28.3355c3.29611.30365,6.594.67821,9.91437.96971C174.372-17.96025,221.09615-93.45616,207.85919-154.86868"/>
      <path class="cls-9" d="M-155.69573,150.61841s-7.67233-41.34189,8.05165-64.01729C-130.87046,62.412-105.137,38.92218-46.00425,43.30229c2.11608.15674,4.24947.04422,6.36614.25355C78.614,55.25075-50.738-38.025,58.552-27.801c3.30422.3091,6.614.69843,9.95194,1.00469C175.60269-16.97,222.59893-92.15493,208.00964-154.967"/>
      <path class="cls-9" d="M-155.42819,151.1838s-7.67162-41.7108,8.73761-63.63359c17.48071-23.35429,43.53642-46.13408,102.406-42.238,2.12292.1405,4.25845-.008,6.37665.18213C79.58085,56.03911-49.156-37.61285,59.7838-27.2666c3.31234.31458,6.634.71859,9.98952,1.03967,107.05982,10.24446,154.3284-64.62677,138.38676-128.8385"/>
      <path class="cls-9" d="M-155.16066,151.74919s-7.67334-42.07878,9.42359-63.24988c18.18514-22.51863,44.56781-44.59371,103.17215-41.17726,2.12984.12417,4.26726-.06011,6.38715.11071C80.54111,56.83752-47.574-37.19964,61.01563-26.73215c3.32045.32007,6.654.73868,10.0271,1.07466C178.0634-14.99767,225.6045-89.55247,208.31052-155.1638"/>
      <path class="cls-9" d="M-154.89312,152.31458s-7.67767-42.44612,10.10955-62.86617C-125.89679,67.766-99.18236,46.39058-40.84526,49.33194c2.13686.10774,4.27594-.11216,6.39765.03927C81.49488,57.6462-45.99195-36.78538,62.24746-26.1977c3.32857.32559,6.67405.75871,10.06468,1.10964C179.29352-14.01554,227.10729-88.25124,208.461-155.26218"/>
      <path class="cls-9" d="M-154.62558,152.88s-7.68468-42.81308,10.79551-62.48247C-124.24453,69.55165-97.19354,48.871-39.1256,51.34182c2.144.09122,4.28446-.16411,6.40816-.03215C82.44231,58.46538-44.41-36.37008,63.47929-25.66325c3.33669.33113,6.694.77868,10.10226,1.14463C180.52351-13.036,228.61007-86.95,208.61141-155.36055"/>
      <path class="cls-9" d="M-154.358,153.44536s-7.69443-43.18,11.48148-62.09876C-122.59523,71.33723-95.20288,51.347-37.40594,53.3517c2.15115.07461,4.29283-.216,6.41867-.10357C83.38357,59.29528-42.828-35.95376,64.71113-25.1288c3.3448.33669,6.714.79858,10.13982,1.17961,106.90246,11.89007,155.2619-61.69959,133.9109-131.50974"/>
      <path class="cls-9" d="M-154.0905,154.01075s-7.70694-43.54716,12.16744-61.715c20.97419-19.17327,48.71259-38.47735,106.23678-36.93412,2.15842.05791,4.301-.26773,6.42917-.175,113.576,4.94951-11.989-90.723,95.20007-79.78093,3.35292.34227,6.734.81841,10.1774,1.21458,106.86287,12.295,155.49528-60.96779,132.79194-132.17755"/>
      <path class="cls-9" d="M-153.823,154.57614s-7.72215-43.91491,12.85341-61.33134C-119.30542,74.90692-91.2164,56.28519-33.96661,57.37146c2.16575.0411,4.30913-.31939,6.43967-.24641C85.24831,60.988-39.66423-35.118,67.17479-24.05989c3.361.34787,6.754.83818,10.215,1.24957,106.82323,12.69743,155.72865-60.236,131.673-132.84536"/>
      <path class="cls-9" d="M-153.55542,155.14152s-7.74-44.28354,13.53937-60.94763c22.35127-17.5035,50.79531-35.44641,107.7691-34.81254,2.17317.02418,4.31707-.371,6.45018-.31785C86.17217,61.85129-38.08239-34.69868,68.40662-23.52544c3.36916.3535,6.77393.85789,10.25256,1.28455,106.78356,13.0974,155.962-59.5042,130.554-133.51317"/>
      <path class="cls-9" d="M-153.28789,155.70691s-7.76033-44.65337,14.22535-60.56392c23.03574-16.67046,51.839-33.93778,108.53525-33.75176,2.18066.00715,4.32488-.4224,6.46068-.38927C87.09061,62.726-36.50059-34.27831,69.63845-22.991c3.37729.35916,6.7939.87753,10.29014,1.31954,106.74388,13.49494,156.1954-58.77241,129.435-134.181"/>
      <path class="cls-9" d="M-153.02035,156.2723s-7.783-45.02466,14.91131-60.18021c23.71776-15.839,52.884-32.43369,109.30141-32.691,2.18822-.01,4.33256-.47371,6.47119-.46069,110.3403.67194-12.58239-96.79737,93.20672-85.397,3.38541.36483,6.81386.89711,10.32772,1.35452C187.90223-7.21193,237.62678-79.14263,209.51407-155.95081"/>
      <path class="cls-9" d="M-152.75281,156.83769s-7.8078-45.39765,15.59727-59.79651C-112.758,82.03178-83.22514,66.107-27.088,65.411c2.19584-.02722,4.34011-.52491,6.4817-.53211,109.5184-.36837-12.73085-98.31349,92.70839-86.801,3.39352.37053,6.83381.91662,10.36529,1.3895C189.132-6.24969,239.12956-77.8414,209.66452-156.04918"/>
      <path class="cls-9" d="M-152.48527,157.40308s-7.83449-45.77255,16.28324-59.4128c25.07529-14.18182,54.978-29.43912,110.83373-30.5694,2.20351-.04459,4.34752-.576,6.49219-.60355C89.81566,65.42057-31.75545-33.01129,73.334-21.38764c3.40164.37625,6.85378.93607,10.40287,1.42449C190.36188-5.28977,240.63234-76.54017,209.815-156.14756"/>
      <path class="cls-9" d="M-152.21773,157.96847s-7.86281-46.14951,16.9692-59.02909C-109.49717,85.583-79.22176,70.99076-23.64864,69.43076c2.21125-.06207,4.35482-.62691,6.5027-.675,107.8606-2.41312-13.0279-101.34279,91.71172-89.609,3.40976.382,6.87374.95545,10.44045,1.45946C191.59181-4.33212,242.13513-75.23894,209.9654-156.24593"/>
      <path class="cls-9" d="M-151.95019,158.53386S-159.8427,112.0052-134.295,99.88848c26.426-12.53329,57.07659-26.46262,112.366-28.44784,2.219-.07967,4.362-.6777,6.51321-.74639,107.02516-3.41732-13.17652-102.856,91.21338-91.013,3.41787.38775,6.8937.97477,10.478,1.49445,106.54621,15.44758,157.36227-55.11343,123.84021-137.52"/>
      <path class="cls-9" d="M-151.68265,159.09925s-7.92331-46.91008,18.34113-58.26168c27.09947-11.7125,58.1274-24.9811,113.1322-27.387,2.22689-.0974,4.36909-.72834,6.52371-.81781,106.18571-4.40928-13.32518-104.36826,90.715-92.417,3.426.39355,6.91367.994,10.5156,1.52943C194.052-2.42349,245.1407-72.63648,210.26629-156.44268"/>
      <path class="cls-9" d="M-151.41512,159.66464s-7.95493-47.2938,19.02711-57.878c27.77209-10.89409,59.17908-23.504,113.89835-26.32626,2.23478-.11527,4.37606-.77884,6.53422-.88924C93.387,69.18226-25.42935-31.3084,78.26128-19.24983c3.4341.39936,6.93362,1.01323,10.55317,1.56442,106.46784,16.213,157.829-53.64984,121.60228-138.85565"/>
      <path class="cls-9" d="M-151.14758,160.23s-7.98715-47.67982,19.71307-57.49426c28.44414-10.078,60.23158-22.0314,114.66452-25.26548,2.24271-.13325,4.38292-.82917,6.54472-.96067C94.27044,70.15349-23.848-30.88031,79.49311-18.71538c3.44222.40521,6.9536,1.03236,10.59075,1.5994C196.51273-.52351,248.14627-70.034,210.56718-156.63943"/>
      <path class="cls-9" d="M-150.88,160.79542s-8.01971-48.06811,20.399-57.11055c29.11584-9.26426,61.28478-20.56317,115.43068-24.2047,2.25068-.15137,4.3897-.87934,6.55523-1.03209,103.64571-7.31092-13.77157-108.89937,89.22-96.629,3.45033.41107,6.97357,1.05143,10.62833,1.63438C197.74335.42333,249.64905-68.73279,210.71762-156.73781"/>
      <path class="cls-9" d="M-150.6125,161.3608s-8.05238-48.45859,21.085-56.72684c29.78744-8.45271,62.33861-19.0993,116.19683-23.14391,2.25869-.16962,4.39639-.92934,6.56573-1.10351C96.0278,72.13332-20.68542-30.02134,81.95677-17.64648c3.45844.417,6.99355,1.07043,10.66591,1.66937C198.97415,1.3681,251.15183-67.43156,210.86806-156.83618"/>
      <path class="cls-9" d="M-150.345,161.92619s-8.085-48.85121,21.771-56.34313c30.45915-7.64329,63.393-17.63977,116.963-22.08312,2.26673-.188,4.403-.97917,6.57624-1.17494C96.90229,73.142-19.10425-29.59048,83.1886-17.112c3.46656.42287,7.01354,1.08936,10.70349,1.70434C200.20516,2.31086,252.65462-66.13032,211.01851-156.93456"/>
      <path class="cls-9" d="M-150.07742,162.49158s-8.11729-49.24584,22.45693-55.95942C-96.48934,99.69628-63.17267,90.34763-9.89135,85.50982c2.2748-.20655,4.40953-1.02881,6.58675-1.24637C97.77434,74.16319-17.52315-29.1587,84.42043-16.57757c3.47467.42881,7.03354,1.10824,10.74107,1.73933C201.43639,3.25162,254.1574-64.82909,211.169-157.03293"/>
      <path class="cls-9" d="M-149.80988,163.057s-8.1492-49.64236,23.14289-55.57572C-94.86338,101.45091-61.164,92.7477-8.17168,87.5197c2.28288-.22522,4.416-1.07826,6.59724-1.31779C98.64425,75.1969-15.94213-28.726,85.65227-16.04312c3.48276.43478,7.05353,1.127,10.77864,1.77431,106.237,18.45924,159.22928-49.259,114.88848-142.8625"/>
      <path class="cls-9" d="M-149.54234,163.62236s-8.18055-50.04065,23.82886-55.192C-93.23684,103.2038-59.155,95.14357-6.452,89.52958c2.291-.244,4.42237-1.12753,6.60775-1.38921C99.5123,76.24312-14.36119-28.29245,86.8841-15.50867c3.49087.44078,7.07354,1.1458,10.81622,1.80929C203.89957,5.12732,257.163-62.22663,211.46984-157.22968"/>
      <path class="cls-9" d="M-149.27481,164.18775s-8.21124-50.44057,24.51483-54.8083c33.15038-4.42437,67.61422-11.84419,120.02762-17.84,2.29912-.263,4.42871-1.1766,6.61826-1.46064,98.49287-12.777-14.66623-117.93681,86.23-105.053,3.499.4468,7.09355,1.16449,10.8538,1.84428C205.13155,6.06232,258.66576-60.9254,211.62028-157.32806"/>
      <path class="cls-9" d="M-149.00727,164.75314s-8.24119-50.842,25.20079-54.42459c33.82489-3.62364,68.67006-10.40571,120.79378-16.7792,2.30726-.28212,4.435-1.22547,6.62876-1.53206C101.244,78.37289-11.19955-27.42264,89.34776-14.43977c3.50708.45284,7.11358,1.18312,10.89137,1.87926,106.12469,19.556,159.92941-47.06366,111.5316-144.86593"/>
      <path class="cls-9" d="M-148.73973,165.31853S-157.01,114.07378-122.853,111.27764C-88.35272,108.45341-53.127,102.30634-1.293,95.55923c2.3154-.30139,4.44124-1.27412,6.63926-1.60349C102.10813,79.45634-9.61886-26.98641,90.57959-13.90532c3.51517.45892,7.13362,1.20168,10.929,1.91425C207.59637,7.92679,261.67132-58.32294,211.92117-157.52481"/>
      <path class="cls-9" d="M-148.47219,165.88392s-8.2986-51.64875,26.57272-53.65718c35.17652-2.026,70.78175-7.54091,122.3261-14.65763,2.32355-.32081,4.44745-1.32256,6.64977-1.67491C102.97161,80.55208-8.03826-26.54932,91.81143-13.37086c3.52326.465,7.15366,1.22017,10.96652,1.94922,106.05128,20.278,160.39616-45.60007,109.29366-146.20155"/>
      <path class="cls-9" d="M-148.20465,166.44931s-8.326-52.05384,27.25869-53.27347C-85.09226,111.947-49.1085,107.06135,2.14629,99.579c2.3317-.34039,4.45363-1.3708,6.66027-1.74634C103.83467,81.66-6.45775-26.11137,93.04326-12.83641c3.53135.47113,7.17371,1.2386,11.0041,1.98421,106.015,20.63628,160.62953-44.86828,108.1747-146.86936"/>
      <path class="cls-9" d="M-147.93711,167.0147s-8.35244-52.45992,27.94465-52.88977c36.53185-.43262,72.893-4.692,123.85841-12.53605,2.33984-.36013,4.4598-1.4188,6.67078-1.81776C104.69762,82.78-4.87733-25.67256,94.27509-12.302c3.53945.47729,7.19378,1.257,11.04168,2.01919C211.29591,10.71011,266.17968-54.41925,212.3725-157.81994"/>
      <path class="cls-9" d="M-147.66957,167.58008s-8.378-52.86685,28.63062-52.50605c37.21094.36277,73.94822-3.27331,124.62456-11.47527,2.348-.38,4.466-1.46657,6.68129-1.88919C105.56073,83.912-3.297-25.2329,95.50692-11.76751c3.54753.48347,7.21387,1.27529,11.07926,2.05417C212.52976,11.63444,267.68246-53.118,212.52294-157.91831"/>
      <path class="cls-9" d="M-147.402,168.14547s-8.40258-53.27454,29.31659-52.12234c37.891,1.15745,75.00311-1.85844,125.39073-10.41449,2.35609-.40007,4.4721-1.51411,6.69178-1.96061C106.42431,85.05588-1.71679-24.7924,96.73875-11.23306c3.55562.48968,7.234,1.29354,11.11684,2.08916C213.764,12.5571,269.18525-51.81679,212.67339-158.01669"/>
      <path class="cls-9" d="M-147.1345,168.71086s-8.42628-53.6829,30.00255-51.73863c38.572,1.9515,76.05758-.4473,126.15689-9.3537,2.36419-.4203,4.47826-1.56142,6.70229-2.032C107.28864,86.21143-.13668-24.35106,97.97059-10.69861c3.56369.49592,7.25406,1.31173,11.15441,2.12414C214.99853,13.47812,270.688-50.51556,212.82383-158.11506"/>
      <path class="cls-9" d="M-146.867,169.27625s-8.44909-54.09182,30.68852-51.35493c39.25392,2.745,77.11154.96018,126.923-8.29291,2.37228-.44068,4.48443-1.60848,6.7128-2.10346C108.154,87.37853,1.44334-23.9089,99.20242-10.16416c3.57177.50219,7.27419,1.32986,11.192,2.15913,105.83906,22.40255,161.7964-41.2093,102.57986-150.20841"/>
      <path class="cls-9" d="M-146.59942,169.84164s-8.471-54.50123,31.37448-50.97122c39.93675,3.5381,78.16493,2.364,127.6892-7.23213,2.38033-.46123,4.49063-1.65529,6.72331-2.17488C109.02074,88.557,3.02324-23.46591,100.43425-9.6297c3.57984.50847,7.29433,1.34792,11.22957,2.1941,105.805,22.75094,162.02978-40.4775,101.4609-150.87621"/>
      <path class="cls-9" d="M-146.33188,170.407s-8.49208-54.911,32.06045-50.58751c40.62045,4.33078,79.21767,3.76437,128.45535-6.17135,2.38836-.48195,4.49686-1.70184,6.73381-2.24631C109.88908,89.74673,4.603-23.0221,101.66608-9.09525c3.58791.5148,7.31448,1.36592,11.26714,2.22908,105.77129,23.09777,162.26316-39.7457,100.34194-151.544"/>
      <path class="cls-9" d="M-146.06434,170.97242s-8.51233-55.32122,32.74641-50.20381c41.305,5.12316,80.2697,5.16124,129.22152-5.11056,2.39634-.50283,4.50312-1.74815,6.74431-2.31773C110.75933,90.94745,6.18272-22.57749,102.89791-8.5608c3.596.52115,7.33465,1.38387,11.30472,2.26407,105.738,23.44306,162.49654-39.01391,99.223-152.21183"/>
      <path class="cls-9" d="M-145.7968,171.53781s-8.53179-55.73167,33.43238-49.8201c41.99037,5.91527,81.32093,6.55469,129.98767-4.04977,2.40429-.5239,4.50944-1.7942,6.75482-2.38916C111.63177,92.159,7.76229-22.13207,104.12974-8.02635c3.604.52754,7.35484,1.40175,11.3423,2.29905,105.70513,23.78686,162.72991-38.28211,98.104-152.87964"/>
      <path class="cls-9" d="M-145.52927,172.1032s-8.55048-56.14235,34.11835-49.43639c42.67652,6.70717,82.37132,7.94482,130.75383-2.989,2.4122-.54513,4.51583-1.84,6.76532-2.46058C112.50668,93.38113,9.34174-21.68586,105.36158-7.4919c3.61209.53395,7.375,1.41958,11.37987,2.334,105.67268,24.12918,162.96329-37.55032,96.985-153.54745"/>
      <path class="cls-9" d="M-145.26173,172.66859s-8.56845-56.55322,34.80432-49.05268c43.36341,7.49891,83.42078,9.33168,131.52-1.92821,2.42006-.56653,4.52228-1.88549,6.77583-2.532,85.54594-24.542-16.91733-140.39455,78.755-126.11314,3.62014.5404,7.39525,1.43734,11.41745,2.369,105.64066,24.47006,163.19666-36.81852,95.86608-154.21526"/>
      <path class="cls-9" d="M-144.99419,173.234s-8.58572-56.96422,35.49028-48.669c44.051,8.29055,84.46925,10.71536,132.28614-.86742,2.42786-.5881,4.52882-1.93073,6.78634-2.60343C114.265,95.85635,12.50028-20.79107,107.82524-6.423c3.62819.54687,7.41549,1.455,11.455,2.404,105.60909,24.80951,163.43-36.08672,94.74711-154.88306"/>
      <path class="cls-9" d="M-144.72665,173.79936S-153.329,116.424-108.55041,125.5141c44.73932,9.08209,85.51668,12.09591,133.05231.19337,2.4356-.60986,4.53544-1.97571,6.79683-2.67486C115.149,97.10894,14.07937-20.3425,109.05707-5.88854c3.63623.55337,7.43575,1.47268,11.49261,2.439,105.578,25.14756,163.66341-35.35493,93.62814-155.55088"/>
      <path class="cls-9" d="M-144.45911,174.36475s-8.61831-57.78649,36.86221-47.90155c45.42825,9.87358,86.563,13.47342,133.81846,1.25415,2.44329-.63179,4.54216-2.0204,6.80734-2.74628C116.03652,98.3712,15.65833-19.89316,110.2889-5.35409c3.64427.5599,7.456,1.49026,11.53019,2.474,105.54728,25.48424,163.89678-34.62313,92.50918-156.21868"/>
      <path class="cls-9" d="M-144.19157,174.93014s-8.6337-58.1977,37.54817-47.51784c46.11781,10.665,87.60811,14.848,134.58462,2.31493,2.45092-.65389,4.549-2.06482,6.81785-2.81771C116.92787,99.64286,17.23715-19.44306,111.52074-4.81964c3.65229.56647,7.47631,1.50779,11.56776,2.50895C228.60556,23.50888,287.21866-36.202,214.47871-159.19719"/>
      <path class="cls-9" d="M-143.924,175.49553s-8.64851-58.60893,38.23414-47.13414c46.80794,11.45651,88.652,16.21962,135.35077,3.37572,2.45847-.67617,4.556-2.10895,6.82835-2.88913C117.82329,100.92365,18.81585-18.9922,112.75257-4.28519c3.66032.57307,7.49662,1.52525,11.60534,2.54393,105.48732,26.15359,164.36353-33.15954,90.27124-157.5543"/>
      <path class="cls-9" d="M-143.6565,176.06092s-8.66278-59.02015,38.92011-46.75043c47.49863,12.248,89.69459,17.58845,136.11693,4.43651,2.466-.69863,4.56305-2.1528,6.83886-2.96056,80.50364-28.57315-17.825-149.327,75.765-134.53718,3.66834.5797,7.517,1.54266,11.64291,2.57892,105.45806,26.4863,164.59692-32.42775,89.15229-158.22212"/>
      <path class="cls-9" d="M-143.389,176.62631s-8.67656-59.43135,39.60608-46.36672C-55.593,143.2991-13.047,149.21413,33.10021,135.75688c2.47334-.72127,4.57027-2.19637,6.84936-3.032,79.6778-29.21339-17.97674-150.81312,75.26666-135.94119,3.67635.58637,7.53731,1.56,11.68049,2.6139C232.326,26.21535,291.727-32.29834,214.93-159.49232"/>
      <path class="cls-9" d="M-143.12142,177.1917s-8.68985-59.8425,40.292-45.983c48.88154,13.8311,91.77566,20.318,137.64925,6.55808,2.48066-.74408,4.57765-2.23964,6.85987-3.1034C120.53652,104.818,23.55111-17.63511,116.44806-2.68183c3.68436.59305,7.55769,1.57729,11.71807,2.64887,105.401,27.14794,165.06366-30.96415,86.91435-159.55773"/>
      <path class="cls-9" d="M-142.85388,177.75709s-8.70269-60.2536,40.978-45.59931c49.57372,14.62273,92.814,21.67881,138.41541,7.61886,2.48789-.76707,4.58519-2.28263,6.87037-3.17483,78.04082-30.46933-18.28065-153.78308,74.27-138.74919,3.69237.59978,7.57808,1.59452,11.75565,2.68386,105.37318,27.47689,165.297-30.23236,85.79539-160.22555"/>
      <path class="cls-9" d="M-142.58634,178.32248s-8.7151-60.66462,41.664-45.2156C-50.656,148.52133-7.07149,156.144,38.25919,141.78653c2.495-.79025,4.59291-2.32534,6.88088-3.24626,77.23013-31.08565-18.43282-155.267,73.77166-140.1532,3.70035.60655,7.59849,1.6117,11.79322,2.71884,105.34589,27.80466,165.53041-29.50056,84.67642-160.89335"/>
      <path class="cls-9" d="M-142.3188,178.88787s-8.72711-61.07557,42.34993-44.83189c50.95936,16.20625,94.88616,24.393,139.94772,9.74043,2.50208-.8136,4.60081-2.36775,6.89139-3.31768,76.425-31.6946-18.58515-156.75014,73.27332-141.55721,3.70835.61334,7.61894,1.62882,11.8308,2.75383,105.3191,28.13123,165.76379-28.76877,83.55745-161.56117"/>
      <path class="cls-9" d="M-142.05126,179.45326s-8.73873-61.48643,43.0359-44.44819c51.65278,16.99815,95.91982,25.7466,140.71388,10.80122,2.509-.83712,4.6089-2.40986,6.90188-3.3891C124.22592,110.12069,29.86279-15.8154,121.37539-.544c3.71633.62017,7.6394,1.64588,11.86838,2.78881,105.29282,28.45665,165.99716-28.037,82.43849-162.229"/>
      <path class="cls-9" d="M-141.78372,180.01865s-8.75-61.8972,43.72186-44.06448c52.34658,17.79015,96.95182,27.09787,141.48,11.862,2.51586-.86083,4.6172-2.4517,6.91239-3.46053C125.16258,111.464,31.44033-15.35868,122.60722-.00958c3.72431.627,7.65989,1.66288,11.906,2.82379C239.78024,31.59514,300.74371-24.491,215.8327-160.08257"/>
      <path class="cls-9" d="M-141.51619,180.584s-8.76091-62.30786,44.40784-43.68076c53.04072,18.58224,97.9821,28.447,142.24619,12.92279,2.52259-.88472,4.62571-2.49325,6.9229-3.532C126.10539,112.81364,33.01772-14.90125,123.83905.52487c3.73227.63394,7.6804,1.67983,11.94354,2.85878C241.02441,32.48773,302.2465-23.18973,215.98315-160.18094"/>
      <path class="cls-9" d="M-141.24865,181.14942s-8.77151-62.71842,45.0938-43.29706c53.7352,19.37446,99.01062,29.79392,143.01235,13.98358,2.52922-.90878,4.63445-2.5345,6.9334-3.60338,73.26364-34.06318-19.196-162.67568,71.28-147.17323A122.2425,122.2425,0,0,1,137.052,3.95308c105.21711,29.42615,166.69728-25.84157,79.08159-164.2324"/>
      <path class="cls-9" d="M-140.98111,181.71481s-8.78181-63.12888,45.77976-42.91335c54.43,20.16678,100.03734,31.13885,143.77851,15.04436,2.53573-.933,4.64342-2.57547,6.94391-3.6748C128.01022,115.53084,36.172-13.9843,126.30272,1.59378A120.97066,120.97066,0,0,1,138.3214,4.52252C243.51434,34.26966,305.25207-20.58726,216.284-160.37769"/>
      <path class="cls-9" d="M-140.71357,182.2802s-8.79183-63.53922,46.46573-42.52964C-39.12277,160.70977,6.81437,172.23239,50.29683,155.8557c2.54211-.95743,4.65262-2.61616,6.95441-3.74622C128.97262,116.89769,37.74892-13.52479,127.53455,2.12823A119.75122,119.75122,0,0,1,139.59081,5.092c105.1693,30.06708,167.164-24.378,76.84367-165.568"/>
      <path class="cls-9" d="M-140.446,182.84559s-8.80157-63.94945,47.15169-42.14593C-37.4739,162.45142,8.79085,174.52258,52.01649,157.86559c2.54837-.982,4.66209-2.65657,6.96491-3.81766,70.96051-35.77834-19.65574-167.11253,69.785-151.38525a118.58067,118.58067,0,0,1,12.09384,2.9987c105.1462,30.386,167.39742-23.64618,75.7247-166.23582"/>
      <path class="cls-9" d="M-140.17849,183.411s-8.81107-64.35957,47.83766-41.76223c56.51606,22.54443,103.10624,35.16223,146.077,18.22672,2.55451-1.00678,4.67182-2.6967,6.97542-3.88908C130.91826,119.64618,40.90223-12.60373,129.99821,3.19713a117.45717,117.45717,0,0,1,12.13142,3.03369c105.12364,30.70387,167.63079-22.91439,74.60573-166.90364"/>
      <path class="cls-9" d="M-139.911,183.97637s-8.82032-64.76958,48.52362-41.37852c57.21194,23.33721,104.12534,36.49981,146.84314,19.2875,2.56052-1.03171,4.68183-2.73655,6.98593-3.9605,69.4601-36.89771-19.96311-170.067,68.78831-154.19327a116.3777,116.3777,0,0,1,12.169,3.06867C248.50068,37.821,311.2632-15.38234,216.88581-160.77119"/>
      <path class="cls-9" d="M-139.64342,184.54176s-8.82934-65.17946,49.2096-40.99481C-32.52577,167.67706,14.7086,181.3827,57.17547,163.89523c2.5664-1.05681,4.69212-2.77613,6.99643-4.03192C132.89278,122.41209,44.05485-11.68,132.46188,4.266a115.34182,115.34182,0,0,1,12.20657,3.10366c105.08018,31.33668,168.09754-21.4508,72.3678-168.23926"/>
      <path class="cls-9" d="M-139.37588,185.10715S-148.214,119.51791-89.48032,144.496c58.60438,24.92313,106.15748,39.17013,148.37546,21.40907,2.57213-1.08209,4.70269-2.81544,7.00693-4.10335C133.89123,123.8007,45.6309-11.21711,133.69371,4.80049a114.34237,114.34237,0,0,1,12.24415,3.13863c105.05928,31.65164,168.33091-20.719,71.24883-168.90706"/>
      <path class="cls-9" d="M-139.10834,185.67254s-8.84676-65.99889,50.58152-40.2274c59.30093,25.71627,107.17047,40.503,149.14162,22.46986,2.57772-1.10754,4.71357-2.8545,7.01744-4.17478,67.2651-38.5476-20.42547-174.49381,67.2933-158.40528a113.3841,113.3841,0,0,1,12.28173,3.17362c105.03894,31.96566,168.56429-19.98721,70.12987-169.57488"/>
      <path class="cls-9" d="M-138.8408,186.23793s-8.85518-66.40844,51.26749-39.84369C-27.57565,172.90375,20.608,188.22875,62.33446,169.92488c2.58318-1.13315,4.72475-2.89329,7.02795-4.2462,66.5488-39.09119-20.58-175.9681,66.795-159.80929A112.46264,112.46264,0,0,1,148.47668,9.078c105.01916,32.27876,168.79766-19.25541,69.0109-170.24268"/>
      <path class="cls-9" d="M-138.57326,186.80331s-8.86342-66.81786,51.95345-39.46c60.69459,27.30287,109.1901,43.16467,150.67393,24.59142,2.58848-1.15892,4.73625-2.93183,7.03845-4.31762C136.933,127.985,50.358-9.8246,137.3892,6.40384a111.57744,111.57744,0,0,1,12.35689,3.24358C254.746,42.23839,318.77713-8.87619,217.638-161.26307"/>
      <path class="cls-9" d="M-138.30572,187.3687s-8.87149-67.22718,52.63942-39.07627C-24.27461,176.38878,24.53039,192.786,65.77378,173.94464c2.59364-1.18485,4.74808-2.97012,7.049-4.389,65.14-40.17091-20.88947-178.91475,65.7983-162.61731a110.72117,110.72117,0,0,1,12.39445,3.27857C255.9968,43.11914,320.27991-7.575,217.78847-161.36145"/>
      <path class="cls-9" d="M-138.03818,187.93409s-8.8794-67.63639,53.32538-38.69256c62.089,28.88994,111.2011,45.82131,152.20625,26.713,2.59863-1.211,4.76022-3.00819,7.05946-4.46048,64.44767-40.70773-21.04451-180.38711,65.3-164.02131a109.90011,109.90011,0,0,1,12.432,3.31355c104.96323,33.21273,169.49779-17.06,65.654-172.24611"/>
      <path class="cls-9" d="M-137.77065,188.49948s-8.88715-68.04549,54.01136-38.30885C-20.9729,179.87426,28.444,197.33857,69.21311,177.96441a62.81532,62.81532,0,0,0,7.07-4.5319C140.04661,132.18951,55.08333-8.42635,141.0847,8.00719a109.10794,109.10794,0,0,1,12.46961,3.34854C258.5,44.87805,323.28548-4.9725,218.08936-161.5582"/>
      <path class="cls-9" d="M-137.50311,189.06487s-8.89477-68.45448,54.69732-37.92514c63.484,30.47743,113.20326,48.47355,153.73856,28.83456a61.74756,61.74756,0,0,0,7.08047-4.60332c63.08766-41.777-21.35517-183.33,64.30329-166.82932a108.34336,108.34336,0,0,1,12.50719,3.38351c104.9288,33.8311,169.96454-15.59643,63.41608-173.58173"/>
      <path class="cls-9" d="M-137.23557,189.63026s-8.90225-68.86337,55.38328-37.54144c64.1817,31.27134,114.201,49.79821,154.50472,29.89535a60.724,60.724,0,0,0,7.091-4.67474c62.4201-42.31024-21.51081-184.8005,63.805-168.23333a107.611,107.611,0,0,1,12.54477,3.41849C261.00557,46.63364,326.29105-2.37,218.39024-161.75495"/>
      <path class="cls-9" d="M-136.968,190.19565s-8.9096-69.27215,56.06925-37.15773c64.87956,32.06535,115.19638,51.122,155.27088,30.95614a59.74264,59.74264,0,0,0,7.10147-4.74618C143.23451,136.405,59.80694-7.02251,144.7802,9.61055A106.90151,106.90151,0,0,1,157.36254,13.064c104.89667,34.4462,170.43129-14.13284,61.17815-174.91735"/>
      <path class="cls-9" d="M-136.70049,190.761s-8.91682-69.68084,56.75521-36.774c65.57755,32.85946,116.18952,52.445,156.037,32.01692a58.80053,58.80053,0,0,0,7.112-4.8176C144.31393,137.811,61.38107-6.55334,146.012,10.145A106.22,106.22,0,0,1,158.632,13.63346C263.51343,48.386,329.29662.23242,218.69113-161.9517"/>
      <path class="cls-9" d="M-136.43295,191.32643s-8.92394-70.08942,57.44118-36.39032c66.27565,33.65368,117.18032,53.76722,156.80319,33.07771a57.89674,57.89674,0,0,0,7.12249-4.889c60.46792-43.90789-21.97891-189.20837,62.31-172.44535a105.56245,105.56245,0,0,1,12.6575,3.52345c104.86687,35.05817,170.898-12.66925,58.94021-176.253"/>
      <path class="cls-9" d="M-136.16541,191.89182s-8.86369-70.62835,58.12714-36.00661C-10.99748,190.20278,40.13054,210.974,79.53108,190.0237a57.02809,57.02809,0,0,0,7.133-4.96044C146.49823,140.62235,64.52872-5.61321,148.47569,11.2139a104.9304,104.9304,0,0,1,12.69508,3.55843C266.02362,50.13536,332.30218,2.83488,218.992-162.14845"/>
      <path class="cls-9" d="M-135.89788,192.45721s-8.87525-71.0262,58.81312-35.6229c67.73449,35.12252,119.15494,56.40981,158.3355,35.19928a56.19466,56.19466,0,0,0,7.1435-5.03187c59.2089-44.97471-22.292-192.144,61.31328-175.25337a104.31892,104.31892,0,0,1,12.73266,3.59342C267.27959,51.00891,333.805,4.13611,219.14246-162.24682"/>
      <path class="cls-9" d="M-135.63034,193.02259s-8.88683-71.424,59.49908-35.23918c68.42819,35.92747,120.13872,57.7303,159.10167,36.26006a55.39506,55.39506,0,0,0,7.154-5.1033c58.59216-45.50959-22.4489-193.61089,60.81494-176.65736a103.72832,103.72832,0,0,1,12.77023,3.62839C268.53615,51.88174,335.30775,5.43734,219.2929-162.3452"/>
      <path class="cls-9" d="M-135.3628,193.588s-8.89841-71.82187,60.185-34.85548c69.1219,36.73242,121.12013,59.05034,159.86783,37.32085a54.62731,54.62731,0,0,0,7.16451-5.17472c57.98395-46.04586-22.606-195.07723,60.31661-178.06137a103.16275,103.16275,0,0,1,12.8078,3.66337c104.81431,36.27323,171.83155-9.74206,54.46436-178.9242"/>
      <path class="cls-9" d="M-135.09526,194.15337s-8.91-72.21972,60.871-34.47177c69.8156,37.53737,122.09915,60.37,160.634,38.38163a53.88846,53.88846,0,0,0,7.175-5.24614C150.969,146.23326,70.82143-3.72592,153.403,13.35171a102.613,102.613,0,0,1,12.84538,3.69836C271.051,53.62529,338.31332,8.0398,219.59379-162.542"/>
      <path class="cls-9" d="M-134.82772,194.71876s-8.92157-72.61756,61.557-34.08806C-2.76144,198.973,49.805,222.32,88.12939,200.07312a53.1824,53.1824,0,0,0,7.18552-5.31757C152.108,147.63176,72.39406-3.25266,154.63485,13.88616a102.08849,102.08849,0,0,1,12.883,3.73334C272.30936,54.49605,339.81611,9.341,219.74423-162.64032"/>
      <path class="cls-9" d="M-134.56018,195.28415s-8.93315-73.0154,62.24294-33.70436c71.203,39.14727,124.05,63.00844,162.16629,40.50321a52.503,52.503,0,0,0,7.196-5.389c56.21029-47.666-23.07863-199.47284,58.8216-182.27339a101.57909,101.57909,0,0,1,12.92054,3.76833c104.78107,37.1772,172.53167-7.54668,51.10746-180.92764"/>
      <path class="cls-9" d="M-134.29264,195.84954s-8.94473-73.41325,62.9289-33.32065C.533,202.4811,53.65814,226.85624,91.56872,204.09288a51.85186,51.85186,0,0,0,7.20652-5.46042c55.636-48.21079-23.23662-200.93692,58.32327-183.6774a101.08991,101.08991,0,0,1,12.95812,3.80331c104.77117,37.47721,172.765-6.81488,49.98849-181.59544"/>
      <path class="cls-9" d="M-134.02511,196.41493s-8.9563-73.81109,63.61488-32.93694C2.18018,204.23515,55.58108,229.12413,93.28838,206.10276a51.22786,51.22786,0,0,0,7.217-5.53184c55.07-48.75838-23.39485-202.40044,57.82494-185.08141A100.61948,100.61948,0,0,1,171.326,19.3278c104.76187,37.77659,172.99842-6.08308,48.86952-182.26325"/>
      <path class="cls-9" d="M-133.75757,196.98032s-8.96788-74.20893,64.30084-32.55323C3.82739,205.98919,57.50162,231.392,95.008,208.11265a50.63028,50.63028,0,0,0,7.22754-5.60327c54.51233-49.309-23.58324-203.72359,57.3266-186.48541a101.31135,101.31135,0,0,1,13.03327,3.87327C277.34861,57.97258,345.82724,14.546,220.346-163.03382"/>
      <path class="cls-9" d="M-133.49,197.54571s-8.97946-74.60678,64.9868-32.16953C5.4746,207.74324,59.41974,233.65981,96.7277,210.12253a50.05535,50.05535,0,0,0,7.238-5.67469C157.92866,154.58479,80.23091-.77235,160.794,16.55842a99.184,99.184,0,0,1,13.07085,3.90825C278.67579,58.65986,347.33,15.84718,220.49645-163.1322"/>
      <path class="cls-9" d="M-133.22249,198.1111s-8.991-75.00462,65.67277-31.78582c74.67152,43.172,128.88518,69.60244,165.99708,45.80713a49.50445,49.50445,0,0,0,7.24855-5.74612C159.11757,155.96569,81.80948-.33048,162.02584,17.09287a98.944,98.944,0,0,1,13.10843,3.94324c104.78205,38.55026,173.69854-3.8877,45.51263-184.26668"/>
      <path class="cls-9" d="M-132.95495,198.67649s-9.00262-75.40246,66.35873-31.40211C8.769,211.25133,63.24878,238.19575,100.167,214.14229a48.9792,48.9792,0,0,0,7.25905-5.81754c52.88847-50.982-24.038-208.21336,55.83159-190.69743a98.71926,98.71926,0,0,1,13.146,3.97822c104.75318,38.90733,173.93193-3.1559,44.39367-184.93449"/>
      <path class="cls-9" d="M-132.68741,199.24187s-9.0142-75.8003,67.0447-31.0184,130.8024,72.2405,167.5294,47.9287c69.50439-46.0091-28.9379-233.2416,75.78639-193.9772s174.1653-2.4241,43.2747-185.6023"/>
    </g>
  </g>
  <g>
    <rect class="cls-10" x="670.68237" y="174.64087" width="547.57986" height="183.34856" rx="12.61147"/>
    <rect class="cls-11" x="681.14416" y="167.64087" width="547.57986" height="183.34856" rx="12.61147"/>
  </g>
  <text class="cls-12" transform="translate(816.86556 283.75658)">更新日志</text>
  <text class="cls-13" transform="translate(725.9583 188.33237)">编程学院</text>
</svg>
